<svg width="40" height="32" viewBox="0 0 40 32" fill="#AAAAAA" xmlns="http://www.w3.org/2000/svg" class="_icon_iot9p_48"><path d="M10.7093 13.9227C10.7093 14.2617 10.8067 14.5285 11.0014 14.7233C11.2035 14.918 11.474 15.0154 11.8131 15.0154H13.6203V16.7573C13.6203 17.0963 13.7141 17.3668 13.9017 17.5688C14.0965 17.7707 14.3634 17.8717 14.7025 17.8717C15.0271 17.8717 15.2869 17.7707 15.4817 17.5688C15.6765 17.3668 15.7739 17.0963 15.7739 16.7573V15.0154H17.462C17.83 15.0154 18.1186 14.918 18.3278 14.7233C18.537 14.5285 18.6416 14.2617 18.6416 13.9227C18.6416 13.5981 18.537 13.342 18.3278 13.1545C18.1186 12.9597 17.83 12.8624 17.462 12.8624H15.7739V11.1205C15.7739 10.7814 15.6765 10.5146 15.4817 10.3198C15.2869 10.1179 15.0271 10.0169 14.7025 10.0169C14.3634 10.0169 14.0965 10.1179 13.9017 10.3198C13.7141 10.5146 13.6203 10.7814 13.6203 11.1205V12.8624H11.8131C11.474 12.8624 11.2035 12.9597 11.0014 13.1545C10.8067 13.342 10.7093 13.5981 10.7093 13.9227ZM27.1043 13.8794C27.5876 13.8794 27.9952 13.7135 28.3271 13.3817C28.6662 13.0427 28.8357 12.6352 28.8357 12.1591C28.8357 11.6758 28.6662 11.2683 28.3271 10.9365C27.9952 10.5975 27.5876 10.428 27.1043 10.428C26.6281 10.428 26.2205 10.5975 25.8814 10.9365C25.5423 11.2683 25.3728 11.6758 25.3728 12.1591C25.3728 12.6352 25.5423 13.0427 25.8814 13.3817C26.2205 13.7135 26.6281 13.8794 27.1043 13.8794ZM23.717 17.3091C24.2004 17.3091 24.608 17.1432 24.9399 16.8114C25.279 16.4796 25.4485 16.0721 25.4485 15.5888C25.4485 15.1056 25.279 14.6981 24.9399 14.3663C24.608 14.0273 24.2004 13.8577 23.717 13.8577C23.2409 13.8577 22.8333 14.0273 22.4942 14.3663C22.1623 14.6981 21.9964 15.1056 21.9964 15.5888C21.9964 16.0721 22.1623 16.4796 22.4942 16.8114C22.8333 17.1432 23.2409 17.3091 23.717 17.3091ZM8.30682 26.1052C7.46273 26.1052 6.71602 25.9285 6.06672 25.5751C5.41741 25.2289 4.90879 24.7276 4.54084 24.0712C4.18012 23.422 3.99976 22.6467 3.99976 21.745C3.99976 21.1608 4.05747 20.5405 4.1729 19.8841C4.29555 19.2277 4.46509 18.5389 4.68153 17.8176C4.90518 17.0675 5.17572 16.2524 5.49316 15.3725C5.8106 14.4925 6.14968 13.6089 6.51041 12.7217C6.87835 11.8273 7.24629 10.9942 7.61423 10.2224C7.92445 9.56608 8.22386 9.00708 8.51244 8.54545C8.80823 8.08383 9.17978 7.70515 9.62708 7.40942C10.0816 7.10648 10.7129 6.86485 11.5209 6.68453C12.5814 6.4465 13.8259 6.25536 15.2544 6.1111C16.6829 5.96684 18.2665 5.89471 20.0052 5.89471C21.7439 5.89471 23.3275 5.96684 24.7559 6.1111C26.1844 6.25536 27.4253 6.4465 28.4786 6.68453C29.2866 6.86485 29.9179 7.10648 30.3724 7.40942C30.8269 7.70515 31.1985 8.08383 31.4871 8.54545C31.7757 9.00708 32.0787 9.56608 32.3961 10.2224C32.7568 10.9942 33.1212 11.8273 33.4891 12.7217C33.857 13.6089 34.1997 14.4925 34.5172 15.3725C34.8346 16.2524 35.1052 17.0675 35.3288 17.8176C35.5452 18.5389 35.7112 19.2277 35.8266 19.8841C35.942 20.5405 35.9998 21.1608 35.9998 21.745C35.9998 22.6467 35.8158 23.422 35.4478 24.0712C35.0871 24.7276 34.5821 25.2289 33.9328 25.5751C33.2835 25.9285 32.5404 26.1052 31.7035 26.1052C30.8522 26.1052 30.1235 25.9502 29.5175 25.64C28.9115 25.3299 28.356 24.8935 27.851 24.3309L25.9571 22.1778C25.8129 22.0263 25.6722 21.9145 25.5351 21.8424C25.4052 21.7703 25.2537 21.7342 25.0806 21.7342H14.9189C14.753 21.7342 14.6015 21.7703 14.4644 21.8424C14.3273 21.9145 14.1903 22.0263 14.0532 22.1778L12.1486 24.3309C11.6508 24.8935 11.0952 25.3299 10.482 25.64C9.87598 25.9502 9.15092 26.1052 8.30682 26.1052Z" stroke-color="currentColor"></path></svg>