<svg width="40" height="32" viewBox="0 0 40 32" fill="#AAAAAA" xmlns="http://www.w3.org/2000/svg" class="_icon_iot9p_48"><path d="M7.99976 11.5273C7.99976 9.59255 7.99976 8.62518 8.37295 7.88621C8.70121 7.2362 9.22502 6.70772 9.86928 6.37652C10.6017 6 11.5605 6 13.4781 6H25.6332C27.5508 6 28.5096 6 29.2421 6.37652C29.8863 6.70772 30.4101 7.2362 30.7384 7.88621C31.0242 8.45221 31.0911 9.15219 31.1068 10.3182H25.1196C23.5243 10.3182 22.7266 10.3182 22.0973 10.5811C21.2584 10.9318 20.5918 11.6043 20.2443 12.4507C19.9837 13.0856 19.9837 13.8904 19.9837 15.5C19.9837 17.1096 19.9837 17.9144 20.2443 18.5493C20.5918 19.3957 21.2584 20.0682 22.0973 20.4189C22.7266 20.6818 23.5243 20.6818 25.1196 20.6818H31.1068C31.0911 21.8478 31.0242 22.5478 30.7384 23.1138C30.4101 23.7638 29.8863 24.2923 29.2421 24.6235C28.5096 25 27.5508 25 25.6332 25H13.4781C11.5605 25 10.6017 25 9.86928 24.6235C9.22502 24.2923 8.70121 23.7638 8.37295 23.1138C7.99976 22.3748 7.99976 21.4075 7.99976 19.4727V11.5273Z" stroke-color="currentColor"></path><path fill-rule="evenodd" clip-rule="evenodd" d="M21.4817 15.2841C21.4817 14.0749 21.4817 13.4703 21.7149 13.0084C21.9201 12.6022 22.2474 12.2719 22.6501 12.0649C23.1079 11.8295 23.7071 11.8295 24.9056 11.8295H28.7576C29.9561 11.8295 30.5554 11.8295 31.0131 12.0649C31.4158 12.2719 31.7432 12.6022 31.9483 13.0084C32.1816 13.4703 32.1816 14.0749 32.1816 15.2841V15.7159C32.1816 16.9251 32.1816 17.5297 31.9483 17.9916C31.7432 18.3978 31.4158 18.7281 31.0131 18.9351C30.5554 19.1705 29.9561 19.1705 28.7576 19.1705H24.9056C23.7071 19.1705 23.1079 19.1705 22.6501 18.9351C22.2474 18.7281 21.9201 18.3978 21.7149 17.9916C21.4817 17.5297 21.4817 16.9251 21.4817 15.7159V15.2841ZM26.8316 15.5C26.8316 16.4539 26.0651 17.2273 25.1196 17.2273C24.1741 17.2273 23.4076 16.4539 23.4076 15.5C23.4076 14.5461 24.1741 13.7727 25.1196 13.7727C26.0651 13.7727 26.8316 14.5461 26.8316 15.5Z" stroke-color="currentColor"></path></svg>